<svg width="26" height="25" viewBox="0 0 26 25" fill="none" xmlns="http://www.w3.org/2000/svg">
<g id="logo">
<g id="megh_technologies_logo">
<path id="Union_1" d="M9.84721 20.0896C9.46033 21.4932 7.94868 21.7595 5.9636 21.2043C7.50504 21.1223 9.11769 20.8498 8.94309 18.9262C8.79933 17.321 8.66376 16.4375 9.99529 15.3023C10.2512 15.5306 10.5352 15.7284 10.8412 15.8916C9.63627 17.4476 9.99336 18.9239 11.5177 19.8751C13.2266 20.9412 14.3927 23.3651 10.0093 24.608C11.5455 23.3598 12.938 22.0001 9.84721 20.0896ZM12.5474 20.1339C11.1089 19.1472 10.6615 18.0192 11.2634 16.09C11.6109 16.2306 11.9765 16.3268 12.3504 16.3763C12.1177 18.3355 13.1279 18.8774 14.1661 19.5154C15.8244 20.5344 15.1619 23.0882 13.087 23.6141C14.2457 22.2415 14.013 21.1361 12.5483 20.1326L12.5474 20.1339ZM15.0125 19.6718C13.7201 18.6314 12.9673 18.0981 13.0697 16.398C13.4202 16.3879 13.7682 16.3373 14.1059 16.2474C14.4063 18.1587 15.7549 18.9646 17.5404 18.6143C19.5422 18.2213 22.1655 19.1543 19.9821 22.9796C20.1446 21.0644 20.1218 19.1662 16.5147 19.8893C17.2815 21.1436 16.4086 22.3479 14.5907 23.288C15.6219 22.1972 16.5622 20.9207 15.0125 19.6718ZM4.66052 20.4251C6.49529 20.231 7.15271 19.2925 6.85983 17.5979C6.57261 15.932 7.09253 14.8332 8.94964 13.8708C9.09191 14.2038 9.27977 14.5176 9.5083 14.804C7.89148 16.0365 8.20477 17.0977 8.46592 18.2469C8.78532 19.6488 7.48358 20.775 6.02274 20.775C5.54423 20.7748 5.07422 20.6542 4.66052 20.4251ZM18.4599 18.1087C16.7088 18.3745 15.5553 17.8775 14.5493 16.1069C14.8997 15.9731 15.23 15.7957 15.5315 15.5792C16.8212 17.1229 17.9374 16.8287 19.1456 16.5833C21.0766 16.1911 22.5013 18.4441 21.4212 20.211C21.2256 18.4631 20.2415 17.8345 18.4599 18.107V18.1087ZM1.74255 19.0613C3.7555 19.2088 5.75042 19.18 4.97768 15.7512C3.66239 16.4849 2.39432 15.6582 1.39991 13.9316C2.55208 14.9093 3.89568 15.8 5.20159 14.3209C6.29045 13.0875 6.84821 12.3693 8.63501 12.4601C8.64663 12.7937 8.70086 13.1247 8.7965 13.446C6.78907 13.7379 5.94691 15.0242 6.32114 16.722C6.62892 18.1185 6.18751 19.8361 4.33978 19.8367C3.4209 19.7821 2.52944 19.516 1.74255 19.0613ZM19.864 16.1273C18.1767 16.2603 17.248 16.3865 16.0595 15.1136C16.3005 14.871 16.5097 14.6015 16.6823 14.3109C18.3118 15.4628 19.8657 15.1278 20.8722 13.6804C21.9985 12.0579 24.5501 10.956 25.8405 15.1322C24.5348 13.6666 23.1101 12.3379 21.092 15.2731C22.5655 15.6461 22.8402 17.0856 22.2502 18.9727C22.1679 17.5049 21.8872 15.9697 19.864 16.1273ZM9.32208 12.3037C9.32282 10.4261 10.9465 8.88159 12.9194 8.88159C14.8927 8.88159 16.5167 10.427 16.5167 12.3051C16.5167 14.1831 14.8927 15.7285 12.9194 15.7287H12.9189C10.9458 15.7287 9.32208 14.1834 9.32208 12.3055V12.3037ZM1.05638 12.5022C2.49949 13.597 3.66343 13.3741 4.71177 11.9768C5.74341 10.6034 6.92776 10.1753 8.9562 10.7416C8.80976 11.0728 8.70994 11.4208 8.65914 11.777C6.59912 11.5639 6.03347 12.5253 5.36681 13.5151C4.98767 14.0842 4.3216 14.4246 3.61353 14.411C2.41219 14.391 1.36327 13.6082 1.05638 12.5026V12.5022ZM16.8904 13.912C17.0394 13.5818 17.1419 13.2342 17.1949 12.8783C19.2532 13.1052 19.8257 12.1469 20.5002 11.1615C21.5772 9.58651 24.2577 10.2258 24.8034 12.2023C23.368 11.0977 22.2046 11.3139 21.1451 12.7038C20.4071 13.6714 19.5967 14.166 18.4673 14.166C17.9315 14.1546 17.4004 14.0691 16.8904 13.912ZM0 9.57758C1.31664 11.0348 2.75052 12.3543 4.74856 9.40617C3.27282 9.04279 2.98739 7.60516 3.56421 5.71411C3.65732 7.18067 3.94604 8.71457 5.96837 8.54401C7.65446 8.40167 8.58227 8.26797 9.77973 9.53292C9.54048 9.77706 9.3334 10.048 9.16283 10.3396C7.52411 9.19832 5.97388 9.54214 4.97947 10.9972C4.43661 11.7907 3.55543 12.4628 2.64191 12.4628C1.67596 12.4632 0.677834 11.7163 0 9.57758ZM17.2252 12.1917C17.2159 11.858 17.1639 11.5266 17.0707 11.2049C19.0804 10.9253 19.9314 9.64493 19.5691 7.945C19.1632 6.03978 20.1525 3.54532 24.165 5.63571C22.1525 5.47493 20.1582 5.49081 20.9062 8.92497C22.2265 8.19963 23.4891 9.03443 24.471 10.7672C23.3257 9.78189 21.9882 8.88287 20.6721 10.353C19.6451 11.501 19.086 12.2009 17.5529 12.2009C17.4473 12.2032 17.3378 12.1996 17.2252 12.193V12.1917ZM16.3699 9.84342C17.9961 8.62143 17.6907 7.55809 17.437 6.40712C17.032 4.56797 19.4048 3.22022 21.2569 4.25379C19.4212 4.4364 18.7568 5.3703 19.0376 7.06682C19.3132 8.73442 18.7848 9.83009 16.9207 10.7806C16.7808 10.4473 16.5952 10.1331 16.3686 9.84611L16.3699 9.84342ZM14.9906 8.72124C16.1847 7.15813 15.8169 5.68363 14.2858 4.7425C12.5697 3.6871 11.3849 1.27076 15.7597 0C14.2332 1.25744 12.8514 2.62645 15.9556 4.5192C16.3327 3.11332 17.8425 2.83558 19.8313 3.37972C18.2903 3.47089 16.6801 3.75317 16.8658 5.67696C17.0208 7.28077 17.1647 8.16334 15.8416 9.30778C15.5839 9.08022 15.298 8.88329 14.9906 8.72124ZM6.68061 8.08451C4.75229 8.489 3.31185 6.2445 4.3794 4.47184C4.58931 6.217 5.57775 6.83913 7.35889 6.55415C9.108 6.27456 10.2643 6.76639 11.282 8.53026C10.9331 8.6658 10.6043 8.84459 10.3044 9.06193C9.00134 7.532 7.88731 7.83158 6.68061 8.08451ZM13.4776 8.24756C13.6949 6.28661 12.6823 5.75182 11.6395 5.12006C9.97384 4.11116 10.6186 1.55375 12.6893 1.01457C11.5455 2.39252 11.7825 3.49712 13.2541 4.49169C14.7001 5.46912 15.1544 6.59498 14.5669 8.52714C14.2183 8.38905 13.8519 8.29519 13.4776 8.24798V8.24756ZM8.27315 6.03978C6.2751 6.44569 3.64436 5.52895 5.80017 1.68986C5.65179 3.606 5.68844 5.50456 9.29184 4.75795C8.51583 3.5086 9.38033 2.29908 11.1913 1.34647C10.1671 2.44611 9.23597 3.72836 10.7951 4.9658C12.0949 5.99809 12.8514 6.52622 12.761 8.22671C12.4105 8.23891 12.0629 8.29165 11.7256 8.38352C11.4101 6.4749 10.0558 5.67781 8.27315 6.03978Z" fill="white"/>
</g>
</g>
</svg>
